<svg width="20" height="20" viewBox="0 0 20 20" fill="none" xmlns="http://www.w3.org/2000/svg">
<path d="M10 13.8462L10 8.30769M10 8.30769L12.4615 10.7692M10 8.30769L7.53846 10.7692M5.69231 16.3077C3.6531 16.3077 2 14.6546 2 12.6154C2 10.9801 3.06302 9.59319 4.53571 9.10785C4.48701 8.84858 4.46154 8.58111 4.46154 8.30769C4.46154 5.92862 6.39016 4 8.76923 4C10.7641 4 12.4422 5.35598 12.9322 7.19651C13.1716 7.11888 13.4271 7.07692 13.6923 7.07692C15.0518 7.07692 16.1538 8.17899 16.1538 9.53846C16.1538 9.82412 16.1052 10.0984 16.0157 10.3535C17.1757 10.7942 18 11.9162 18 13.2308C18 14.9301 16.6224 16.3077 14.9231 16.3077H5.69231Z" stroke="#FAFAFA" stroke-width="1.5" stroke-linecap="round" stroke-linejoin="round"/>
</svg>
